<?xml version="1.0" standalone="no"?>
<svg xmlns="http://www.w3.org/2000/svg" font-family="monospace" width="55em" height="8.9em" style="background-color:white"><defs>
	<marker id="Triangle"
		viewBox="0 0 10 10" refX="0" refY="5" 
		markerUnits="strokeWidth"
		markerWidth="15" markerHeight="10"
		orient="auto">
		<path d="M 0 0 L 10 5 L 0 10 z" />
	</marker>
		
		<marker id="Diamond"
		viewBox="0 0 16 10" refX="0" refY="5" 
		markerUnits="strokeWidth"
		markerWidth="20" markerHeight="10"
		orient="auto">
		<path d="M 0 5 L 8 10 L 16 5 L 8 0 z" />
	</marker>   
</defs>
<rect x="1em" y="1em" width="16em" height="3em" fill="beige" stroke="black" stroke-width="2"/>
<text style="font-weight:bold" text-anchor="middle" x="9em" y="2.3em" fill="black">
<title>Запрос создания ресурса выписки</title>
StatementInitRequest
</text>

<rect x="23em" y="1em" width="3.2em" height="3em" fill="beige" stroke="black" stroke-width="2"/>
<text style="font-weight:bold" text-anchor="middle" x="24.6em" y="2.3em" fill="black">
<title>Запрос создания ресурса выписки</title>
Data
</text>

<rect x="32.2em" y="1em" width="20.8em" height="6.9em" fill="beige" stroke="black" stroke-width="2"/>
<text style="font-weight:bold" text-anchor="middle" x="42.6em" y="2.3em" fill="black">
<title>Объект запроса на создание ресурса выписки</title>
Statement
</text>

<text x="33.2em" y="4.3em" fill="darkslateblue">
<title>Type: string
MinLength: 1
MaxLength: 40
Description: Идентификатор ресурса счета
Pattern: ^[\w\W]*$
</title>
accountId [1..1]
</text>

<text x="33.2em" y="5.6em" fill="darkslateblue">
<title>Type: string
Format: date-time
Description: Формат даты и времени
</title>
fromBookingDateTime [1..1]
</text>

<text x="33.2em" y="6.9em" fill="darkslateblue">
<title>Type: string
Format: date-time
Description: Формат даты и времени
</title>
toBookingDateTime [1..1]
</text>

<line x1="17em" y1="2em" x2="19em" y2="2em" stroke="black" marker-start="url(#Diamond)"/>
<line x1="19em" y1="2em" x2="19em" y2="2em" stroke="black" />
<line x1="19em" y1="2em" x2="22.2em" y2="2em" stroke="black" marker-end="url(#Triangle)"/>
<text x="19.5em" y="1.5em">1..1</text>
<line x1="26.2em" y1="2em" x2="28.2em" y2="2em" stroke="black" marker-start="url(#Diamond)"/>
<line x1="28.2em" y1="2em" x2="28.2em" y2="2em" stroke="black" />
<line x1="28.2em" y1="2em" x2="31.400000000000002em" y2="2em" stroke="black" marker-end="url(#Triangle)"/>
<text x="28.700000000000003em" y="1.5em">1..1</text></svg>